<svg width="150" height="150" viewBox="-1 -3 97 97" fill="none" xmlns="http://www.w3.org/2000/svg">
<g filter="url(#filter0_d_312_1272)">
<circle cx="48.5" cy="44.5" r="33.5" fill="#FEE500"/>
<path d="M48 30C57.6667 30 65.5017 36.1067 65.5017 43.6417C65.5017 51.175 57.6667 57.2817 48.0017 57.2817C47.0393 57.2821 46.0779 57.2209 45.1234 57.0983L37.7767 61.9033C36.9417 62.345 36.6467 62.2967 36.99 61.215L38.4767 55.085C33.6767 52.6517 30.5017 48.435 30.5017 43.6417C30.5017 36.1083 38.335 30 48.0017 30H48ZM57.8467 43.4333L60.2967 41.06C60.4381 40.9132 60.5169 40.7172 60.5167 40.5134C60.5165 40.3096 60.4371 40.1138 60.2954 39.9673C60.1537 39.8209 59.9606 39.7351 59.7569 39.7282C59.5532 39.7212 59.3548 39.7935 59.2034 39.93L55.99 43.04V40.47C55.99 40.2614 55.9072 40.0613 55.7596 39.9137C55.6121 39.7662 55.412 39.6833 55.2034 39.6833C54.9947 39.6833 54.7946 39.7662 54.6471 39.9137C54.4996 40.0613 54.4167 40.2614 54.4167 40.47V44.7317C54.3873 44.8532 54.3873 44.9801 54.4167 45.1017V47.5C54.4167 47.7086 54.4996 47.9087 54.6471 48.0563C54.7946 48.2038 54.9947 48.2867 55.2034 48.2867C55.412 48.2867 55.6121 48.2038 55.7596 48.0563C55.9072 47.9087 55.99 47.7086 55.99 47.5V45.2283L56.7017 44.54L59.0817 47.9283C59.1411 48.0129 59.2166 48.085 59.3039 48.1404C59.3912 48.1958 59.4885 48.2335 59.5903 48.2513C59.6922 48.2691 59.7965 48.2667 59.8974 48.2441C59.9983 48.2216 60.0938 48.1794 60.1784 48.12C60.263 48.0606 60.335 47.9851 60.3904 47.8978C60.4459 47.8105 60.4835 47.7132 60.5013 47.6114C60.5191 47.5095 60.5167 47.4052 60.4942 47.3043C60.4716 47.2034 60.4295 47.1079 60.37 47.0233L57.8467 43.4317V43.4333ZM52.9167 46.64H50.4834V40.495C50.4741 40.2928 50.3872 40.1021 50.2409 39.9623C50.0945 39.8225 49.8999 39.7445 49.6975 39.7445C49.4952 39.7445 49.3006 39.8225 49.1542 39.9623C49.0079 40.1021 48.921 40.2928 48.9117 40.495V47.4267C48.9117 47.86 49.2617 48.2133 49.6967 48.2133H52.9167C53.1253 48.2133 53.3254 48.1305 53.473 47.9829C53.6205 47.8354 53.7034 47.6353 53.7034 47.4267C53.7034 47.218 53.6205 47.0179 53.473 46.8704C53.3254 46.7229 53.1253 46.64 52.9167 46.64ZM43.155 44.8217L44.315 41.975L45.3784 44.82L43.155 44.8217ZM47.36 45.6333L47.3634 45.6067C47.363 45.4085 47.2873 45.2179 47.1517 45.0733L45.4084 40.4067C45.3353 40.1843 45.1961 39.9895 45.0094 39.8483C44.8226 39.7072 44.5973 39.6263 44.3634 39.6167C44.1278 39.6156 43.8974 39.6864 43.703 39.8194C43.5086 39.9525 43.3593 40.1417 43.275 40.3617L40.505 47.1533C40.4261 47.3465 40.4272 47.5631 40.508 47.7555C40.5888 47.9479 40.7427 48.1003 40.9359 48.1792C41.129 48.2581 41.3456 48.257 41.538 48.1762C41.7304 48.0954 41.8828 47.9415 41.9617 47.7483L42.515 46.3933H45.965L46.4617 47.7267C46.4956 47.8263 46.5491 47.9182 46.6192 47.9968C46.6892 48.0754 46.7743 48.1391 46.8694 48.1842C46.9645 48.2293 47.0677 48.2549 47.1728 48.2594C47.278 48.2639 47.383 48.2473 47.4816 48.2105C47.5803 48.1736 47.6705 48.1174 47.747 48.0451C47.8235 47.9728 47.8847 47.8858 47.9269 47.7894C47.9692 47.693 47.9917 47.5891 47.9931 47.4839C47.9945 47.3786 47.9748 47.2742 47.935 47.1767L47.36 45.6333ZM41.8234 40.5033C41.8234 40.295 41.7407 40.0951 41.5936 39.9477C41.4464 39.8002 41.2467 39.7171 41.0384 39.7167H35.63C35.4214 39.7167 35.2213 39.7995 35.0738 39.9471C34.9263 40.0946 34.8434 40.2947 34.8434 40.5033C34.8434 40.712 34.9263 40.9121 35.0738 41.0596C35.2213 41.2071 35.4214 41.29 35.63 41.29H37.5634V47.5167C37.5634 47.7253 37.6463 47.9254 37.7938 48.0729C37.9413 48.2205 38.1414 48.3033 38.35 48.3033C38.5587 48.3033 38.7588 48.2205 38.9063 48.0729C39.0538 47.9254 39.1367 47.7253 39.1367 47.5167V41.29H41.0367C41.2453 41.29 41.4454 41.2071 41.593 41.0596C41.7405 40.9121 41.8234 40.712 41.8234 40.5033Z" fill="#434343"/>
</g>
<defs>
<filter id="filter0_d_312_1272" x="0" y="0" width="97" height="97" filterUnits="userSpaceOnUse" color-interpolation-filters="sRGB">
<feFlood flood-opacity="0" result="BackgroundImageFix"/>
<feColorMatrix in="SourceAlpha" type="matrix" values="0 0 0 0 0 0 0 0 0 0 0 0 0 0 0 0 0 0 127 0" result="hardAlpha"/>
<feOffset dy="4"/>
<feGaussianBlur stdDeviation="7.5"/>
<feComposite in2="hardAlpha" operator="out"/>
<feColorMatrix type="matrix" values="0 0 0 0 0 0 0 0 0 0 0 0 0 0 0 0 0 0 0.1 0"/>
<feBlend mode="normal" in2="BackgroundImageFix" result="effect1_dropShadow_312_1272"/>
<feBlend mode="normal" in="SourceGraphic" in2="effect1_dropShadow_312_1272" result="shape"/>
</filter>
</defs>
</svg>
