<svg width="150" height="150" viewBox="0 -3 97 97" fill="none" xmlns="http://www.w3.org/2000/svg">
<g filter="url(#filter0_d_312_1270)">
<circle cx="48.5" cy="44.5" r="33.5" fill="#00010A"/>
<path d="M59.3 39.5L48.5 46.375L37.7 39.5V36.75L48.5 43.625L59.3 36.75M59.3 34H37.7C36.2015 34 35 35.2237 35 36.75V53.25C35 53.9793 35.2845 54.6788 35.7908 55.1945C36.2972 55.7103 36.9839 56 37.7 56H59.3C60.0161 56 60.7028 55.7103 61.2092 55.1945C61.7155 54.6788 62 53.9793 62 53.25V36.75C62 35.2237 60.785 34 59.3 34Z" fill="white" fill-opacity="0.9"/>
</g>
<defs>
<filter id="filter0_d_312_1270" x="0" y="0" width="97" height="97" filterUnits="userSpaceOnUse" color-interpolation-filters="sRGB">
<feFlood flood-opacity="0" result="BackgroundImageFix"/>
<feColorMatrix in="SourceAlpha" type="matrix" values="0 0 0 0 0 0 0 0 0 0 0 0 0 0 0 0 0 0 127 0" result="hardAlpha"/>
<feOffset dy="4"/>
<feGaussianBlur stdDeviation="7.5"/>
<feComposite in2="hardAlpha" operator="out"/>
<feColorMatrix type="matrix" values="0 0 0 0 0 0 0 0 0 0 0 0 0 0 0 0 0 0 0.1 0"/>
<feBlend mode="normal" in2="BackgroundImageFix" result="effect1_dropShadow_312_1270"/>
<feBlend mode="normal" in="SourceGraphic" in2="effect1_dropShadow_312_1270" result="shape"/>
</filter>
</defs>
</svg>

