<svg width="67" height="67" viewBox="0 0 67 67" fill="none" xmlns="http://www.w3.org/2000/svg">
<circle cx="33.5" cy="33.5" r="33.5" fill="#3EBA2E"/>
<path d="M42.0375 38.0752L38.8626 37.7127C38.4892 37.6688 38.1108 37.7102 37.7557 37.8336C37.4007 37.957 37.0782 38.1593 36.8126 38.4252L34.5126 40.7252C30.964 38.9205 28.0798 36.0362 26.2751 32.4877L28.5876 30.1752C29.1251 29.6377 29.3876 28.8877 29.3001 28.1252L28.9376 24.9752C28.8667 24.3654 28.574 23.803 28.1153 23.395C27.6567 22.987 27.0639 22.762 26.4501 22.7627H24.2876C22.8751 22.7627 21.7001 23.9377 21.7876 25.3502C22.4501 36.0252 30.9876 44.5502 41.6501 45.2127C43.0626 45.3002 44.2375 44.1252 44.2375 42.7127V40.5502C44.25 39.2877 43.3 38.2252 42.0375 38.0752Z" fill="white"/>
</svg>
